<svg width="20" height="20" viewBox="0 0 20 20" fill="none" xmlns="http://www.w3.org/2000/svg">
<mask id="mask0_2255_29199" style="mask-type:alpha" maskUnits="userSpaceOnUse" x="0" y="0" width="20" height="20">
<rect x="20" width="20" height="20" transform="rotate(90 20 0)" fill="#D9D9D9"/>
</mask>
<g mask="url(#mask0_2255_29199)">
<path d="M9.99958 11.1635L13.5604 7.60246C13.6758 7.48718 13.8035 7.42816 13.9435 7.42538C14.0834 7.42274 14.2137 7.48177 14.3346 7.60246C14.4553 7.72329 14.5156 7.85232 14.5156 7.98954C14.5156 8.12677 14.4529 8.25809 14.3275 8.3835L10.4644 12.2468C10.3947 12.3109 10.3214 12.3589 10.2446 12.391C10.1678 12.4231 10.0847 12.4391 9.99542 12.4391C9.90611 12.4391 9.82305 12.4231 9.74625 12.391C9.66944 12.3589 9.59896 12.3109 9.53479 12.2468L5.67167 8.3835C5.55167 8.2635 5.49375 8.13697 5.49792 8.00392C5.50222 7.871 5.56472 7.74413 5.68542 7.62329C5.80625 7.5026 5.93528 7.44225 6.0725 7.44225C6.20972 7.44225 6.33875 7.5026 6.45958 7.62329L9.99958 11.1635Z" fill="#9F9FA3"/>
</g>
</svg>
