<svg width="20" height="20" viewBox="0 0 20 20" fill="none" xmlns="http://www.w3.org/2000/svg">
<mask id="mask0_2250_28824" style="mask-type:alpha" maskUnits="userSpaceOnUse" x="0" y="0" width="20" height="20">
<rect width="20" height="20" fill="#D9D9D9"/>
</mask>
<g mask="url(#mask0_2250_28824)">
<path d="M11.164 10.0001L7.60295 6.43922C7.48767 6.3238 7.42864 6.19609 7.42587 6.05609C7.42323 5.91623 7.48225 5.78588 7.60295 5.66505C7.72378 5.54436 7.85281 5.48401 7.99003 5.48401C8.12725 5.48401 8.25857 5.54672 8.38399 5.67213L12.2473 9.53526C12.3114 9.60498 12.3594 9.67825 12.3915 9.75505C12.4236 9.83186 12.4396 9.91491 12.4396 10.0042C12.4396 10.0935 12.4236 10.1766 12.3915 10.2534C12.3594 10.3302 12.3114 10.4007 12.2473 10.4648L8.38399 14.328C8.26399 14.448 8.13746 14.5059 8.00441 14.5017C7.87149 14.4974 7.74462 14.4349 7.62378 14.3142C7.50309 14.1934 7.44274 14.0644 7.44274 13.9271C7.44274 13.7899 7.50309 13.6609 7.62378 13.5401L11.164 10.0001Z" fill="#9F9FA3"/>
</g>
</svg>
