<svg width="21" height="20" viewBox="0 0 21 20" fill="none" xmlns="http://www.w3.org/2000/svg">
<path d="M9.41602 10.832H13.5827M6.91602 10.832H6.9235M11.0827 14.1654H6.91602M13.5827 14.1654H13.5752" stroke="#141B34" stroke-width="1.25" stroke-linecap="round" stroke-linejoin="round"/>
<path d="M15.25 1.66797V3.33464M5.25 1.66797V3.33464" stroke="#141B34" stroke-width="1.25" stroke-linecap="round" stroke-linejoin="round"/>
<path d="M2.33398 10.2027C2.33398 6.57162 2.33398 4.75607 3.37742 3.62803C4.42085 2.5 6.10023 2.5 9.45898 2.5H11.0423C14.4011 2.5 16.0805 2.5 17.1239 3.62803C18.1673 4.75607 18.1673 6.57162 18.1673 10.2027V10.6307C18.1673 14.2617 18.1673 16.0773 17.1239 17.2053C16.0805 18.3333 14.4011 18.3333 11.0423 18.3333H9.45898C6.10023 18.3333 4.42085 18.3333 3.37742 17.2053C2.33398 16.0773 2.33398 14.2617 2.33398 10.6307V10.2027Z" stroke="#141B34" stroke-width="1.25" stroke-linecap="round" stroke-linejoin="round"/>
<path d="M2.75 6.66797H17.75" stroke="#141B34" stroke-width="1.25" stroke-linecap="round" stroke-linejoin="round"/>
</svg>
