<svg width="21" height="20" viewBox="0 0 21 20" fill="none" xmlns="http://www.w3.org/2000/svg">
<path d="M18.2507 2.5L11.584 9.58333" stroke="#141B34" stroke-width="1.5" stroke-linecap="round" stroke-linejoin="round"/>
<path d="M8.62144 9.23783C6.55449 10.0307 4.90224 9.89466 3.25 9.24041C3.66716 14.6092 6.17012 16.6741 9.50742 17.5C9.50742 17.5 12.0218 15.722 12.3842 11.5062C12.4234 11.0496 12.4431 10.8213 12.3482 10.5641C12.2532 10.3068 12.0668 10.1223 11.6941 9.75333C11.0811 9.14641 10.7746 8.84299 10.4108 8.76699C10.047 8.69108 9.57183 8.87333 8.62144 9.23783Z" stroke="#141B34" stroke-width="1.5" stroke-linecap="round" stroke-linejoin="round"/>
<path d="M4.5 13.7053C4.5 13.7053 6.58333 14.1072 8.66667 12.5" stroke="#141B34" stroke-width="1.5" stroke-linecap="round" stroke-linejoin="round"/>
<path d="M7.83333 6.04167C7.83333 6.61697 7.36697 7.08333 6.79167 7.08333C6.21637 7.08333 5.75 6.61697 5.75 6.04167C5.75 5.46637 6.21637 5 6.79167 5C7.36697 5 7.83333 5.46637 7.83333 6.04167Z" stroke="#141B34" stroke-width="1.5"/>
<path d="M9.91602 3.33203V3.41536" stroke="#141B34" stroke-width="2" stroke-linecap="round" stroke-linejoin="round"/>
</svg>
