<svg width="24" height="24" viewBox="0 0 24 24" fill="none" xmlns="http://www.w3.org/2000/svg">
<path d="M7.5 5.75C7.5 5.33579 7.83579 5 8.25 5H15.75C16.1642 5 16.5 5.33579 16.5 5.75V7.25C16.5 7.66421 16.1642 8 15.75 8H8.25C7.83579 8 7.5 7.66421 7.5 7.25V5.75Z" fill="white"/>
<path d="M8.50156 9.84961C8.0045 9.84961 7.60156 10.2525 7.60156 10.7496C7.60156 11.2467 8.0045 11.6496 8.50156 11.6496C8.99862 11.6496 9.40166 11.2467 9.40166 10.7496C9.40166 10.2525 8.99862 9.84961 8.50156 9.84961Z" fill="white"/>
<path d="M11.1016 10.7496C11.1016 10.2525 11.5045 9.84961 12.0016 9.84961C12.4987 9.84961 12.9017 10.2525 12.9017 10.7496C12.9017 11.2467 12.4988 11.6496 12.0017 11.6496C11.5046 11.6496 11.1016 11.2467 11.1016 10.7496Z" fill="white"/>
<path d="M15.5016 9.84961C15.0045 9.84961 14.6016 10.2525 14.6016 10.7496C14.6016 11.2467 15.0045 11.6496 15.5016 11.6496C15.9987 11.6496 16.4017 11.2467 16.4017 10.7496C16.4017 10.2525 15.9987 9.84961 15.5016 9.84961Z" fill="white"/>
<path d="M7.60156 14.2496C7.60156 13.7525 8.0045 13.3496 8.50156 13.3496C8.99862 13.3496 9.40166 13.7525 9.40166 14.2496C9.40166 14.7467 8.99872 15.1496 8.50166 15.1496C8.0046 15.1496 7.60156 14.7467 7.60156 14.2496Z" fill="white"/>
<path d="M12.0016 13.3496C11.5045 13.3496 11.1016 13.7525 11.1016 14.2496C11.1016 14.7467 11.5045 15.1496 12.0016 15.1496C12.4987 15.1496 12.9017 14.7467 12.9017 14.2496C12.9017 13.7525 12.4987 13.3496 12.0016 13.3496Z" fill="white"/>
<path d="M14.6016 14.2496C14.6016 13.7525 15.0045 13.3496 15.5016 13.3496C15.9987 13.3496 16.4017 13.7525 16.4017 14.2496C16.4017 14.7467 15.9988 15.1496 15.5017 15.1496C15.0046 15.1496 14.6016 14.7467 14.6016 14.2496Z" fill="white"/>
<path d="M8.50156 16.8496C8.0045 16.8496 7.60156 17.2525 7.60156 17.7496C7.60156 18.2467 8.0045 18.6496 8.50156 18.6496C8.99862 18.6496 9.40166 18.2467 9.40166 17.7496C9.40166 17.2525 8.99862 16.8496 8.50156 16.8496Z" fill="white"/>
<path d="M11.1016 17.7496C11.1016 17.2525 11.5045 16.8496 12.0016 16.8496C12.4987 16.8496 12.9017 17.2525 12.9017 17.7496C12.9017 18.2467 12.4988 18.6496 12.0017 18.6496C11.5046 18.6496 11.1016 18.2467 11.1016 17.7496Z" fill="white"/>
<path d="M15.5016 16.8496C15.0045 16.8496 14.6016 17.2525 14.6016 17.7496C14.6016 18.2467 15.0045 18.6496 15.5016 18.6496C15.9987 18.6496 16.4017 18.2467 16.4017 17.7496C16.4017 17.2525 15.9987 16.8496 15.5016 16.8496Z" fill="white"/>
<path fill-rule="evenodd" clip-rule="evenodd" d="M4.5 4.25C4.5 3.00736 5.50736 2 6.75 2H17.25C18.4926 2 19.5 3.00736 19.5 4.25V19.75C19.5 20.9926 18.4926 22 17.25 22H6.75C5.50736 22 4.5 20.9926 4.5 19.75V4.25ZM6.75 3.5C6.33579 3.5 6 3.83579 6 4.25V19.75C6 20.1642 6.33579 20.5 6.75 20.5H17.25C17.6642 20.5 18 20.1642 18 19.75V4.25C18 3.83579 17.6642 3.5 17.25 3.5H6.75Z" fill="white"/>
</svg>
