<svg width="25" height="25" viewBox="0 0 25 25" fill="none" xmlns="http://www.w3.org/2000/svg">
<path d="M11 22.5H7.09087C5.54549 22.5 4.31631 21.748 3.21266 20.6966C0.953366 18.5441 4.6628 16.824 6.07757 15.9816C8.62805 14.4629 11.7057 14.1118 14.5 14.9281" stroke="#141B34" stroke-width="1.5" stroke-linecap="round" stroke-linejoin="round"/>
<path d="M17 7C17 9.48528 14.9853 11.5 12.5 11.5C10.0147 11.5 8 9.48528 8 7C8 4.51472 10.0147 2.5 12.5 2.5C14.9853 2.5 17 4.51472 17 7Z" stroke="#141B34" stroke-width="1.5"/>
<path d="M18.9332 14.3485C19.2685 13.9851 19.4362 13.8035 19.6143 13.6975C20.0442 13.4418 20.5736 13.4339 21.0107 13.6765C21.1918 13.7771 21.3646 13.9537 21.7103 14.3067C22.0559 14.6598 22.2287 14.8364 22.3272 15.0214C22.5647 15.4679 22.5569 16.0087 22.3066 16.4478C22.2029 16.6298 22.0251 16.8011 21.6694 17.1437L17.4378 21.2194C16.7638 21.8686 16.4268 22.1932 16.0056 22.3577C15.5845 22.5222 15.1214 22.5101 14.1954 22.4859L14.0694 22.4826C13.7875 22.4752 13.6466 22.4715 13.5646 22.3785C13.4827 22.2855 13.4939 22.1419 13.5162 21.8548L13.5284 21.6988C13.5914 20.8906 13.6228 20.4865 13.7807 20.1232C13.9385 19.7599 14.2107 19.465 14.7552 18.875L18.9332 14.3485Z" stroke="#141B34" stroke-width="1.5" stroke-linejoin="round"/>
</svg>
