<svg width="23" height="22" viewBox="0 0 23 22" fill="none" xmlns="http://www.w3.org/2000/svg">
<path d="M19.3816 11.9403V9.52474C19.3816 8.6819 19.3816 8.26051 19.2247 7.8816C19.0676 7.5027 18.7697 7.20473 18.1737 6.60879L13.2907 1.72575C12.7764 1.21144 12.5193 0.954273 12.2006 0.801902C12.1343 0.770201 12.0665 0.742077 11.9972 0.717634C11.6641 0.600098 11.3005 0.600098 10.5731 0.600098C7.22777 0.600098 5.55508 0.600098 4.42211 1.51357C4.19322 1.69812 3.98474 1.9066 3.80019 2.13549C2.88672 3.26846 2.88672 4.94115 2.88672 8.28653V11.9403M12.1651 1.11556V1.63103C12.1651 4.54693 12.1651 6.00488 13.0709 6.91074C13.9768 7.81659 15.4348 7.81659 18.3506 7.81659H18.8661" stroke="black" stroke-width="1.2" stroke-linecap="round" stroke-linejoin="round"/>
<path d="M3.78944 14.4104C3.78944 14.4104 3.79297 17.4104 3.79297 18.9104C3.79297 20.4104 3.50122 20.596 2.6471 20.596C1.79297 20.596 0.792969 19.9104 0.792969 19.9104M9.79297 15.9104C9.79297 14.9104 8.79297 14.4104 7.79297 14.4104C6.79297 14.4104 5.79297 14.9104 5.79297 15.9104C5.79297 16.9104 6.79297 17.4104 7.79297 17.4104C8.79297 17.4104 9.79297 17.9104 9.79297 18.9104C9.79297 19.9104 8.91533 20.596 7.79297 20.596C6.67061 20.596 5.79297 19.9104 5.79297 18.9104M17.793 20.596V14.4104L21.475 20.596V14.4104M11.793 17.4104C11.793 17.4104 11.793 14.4104 13.793 14.4104C15.793 14.4104 15.793 17.4104 15.793 17.4104C15.793 17.4104 16.0642 20.596 13.793 20.596C11.5217 20.596 11.793 17.4104 11.793 17.4104Z" stroke="black" stroke-width="1.2" stroke-linecap="round" stroke-linejoin="round"/>
</svg>
