<svg width="18" height="22" viewBox="0 0 18 22" fill="none" xmlns="http://www.w3.org/2000/svg">
<path d="M17.0964 11.9403V9.52474C17.0964 8.6819 17.0964 8.26051 16.9395 7.8816C16.7825 7.5027 16.4846 7.20473 15.8886 6.60879L11.0056 1.72575C10.4913 1.21144 10.2341 0.954273 9.91548 0.801902C9.84919 0.770201 9.78136 0.742077 9.71208 0.717634C9.37898 0.600098 9.01538 0.600098 8.28795 0.600098C4.94261 0.600098 3.26992 0.600098 2.13695 1.51357C1.90807 1.69812 1.69958 1.9066 1.51504 2.13549C0.601562 3.26846 0.601562 4.94115 0.601562 8.28653V11.9403M9.87991 1.11556V1.63103C9.87991 4.54693 9.87991 6.00488 10.7858 6.91074C11.6917 7.81659 13.1496 7.81659 16.0655 7.81659H16.5809" stroke="black" stroke-width="1.2" stroke-linecap="round" stroke-linejoin="round"/>
<path d="M16.8388 14.4146H15.5501H14.2614C13.6921 14.4146 13.2305 14.8761 13.2305 15.4455V17.5073M13.2305 17.5073V20.6001M13.2305 17.5073H16.3233M0.859375 20.6001V18.0228M0.859375 18.0228V14.4146H2.6635C3.65989 14.4146 4.46762 15.2223 4.46762 16.2187C4.46762 17.2151 3.65989 18.0228 2.6635 18.0228H0.859375ZM7.04494 14.4146H8.59133C9.7301 14.4146 10.6532 15.3376 10.6532 16.4764V18.5383C10.6532 19.677 9.7301 20.6001 8.59133 20.6001H7.04494V14.4146Z" stroke="black" stroke-width="1.2" stroke-linecap="round" stroke-linejoin="round"/>
</svg>
