<svg width="24" height="24" viewBox="0 0 24 24" fill="none" xmlns="http://www.w3.org/2000/svg">
<path d="M8.73047 21.4976C10.0226 19.2746 12.9819 19.0125 14.6673 20.7112C15.0441 21.091 15.2325 21.281 15.3996 21.3037C15.5667 21.3264 16.6152 20.7251 16.9874 20.5117C17.3668 20.2942 18.4187 19.6908 18.4848 19.533C18.5509 19.3751 18.4817 19.106 18.3433 18.5678C17.8399 16.6107 19.0606 14.551 21.011 14.0198C21.5329 13.8776 21.7938 13.8065 21.8969 13.6706C22 13.5347 22 12.3395 22 11.9022C22 11.465 22 10.2697 21.8969 10.1338C21.7938 9.99789 21.5329 9.92678 21.011 9.78466C19.0603 9.2534 17.8386 7.19376 18.3418 5.23657C18.4801 4.69827 18.5493 4.42912 18.4832 4.2713C18.4171 4.11349 17.3652 3.51018 16.9859 3.29265C16.6136 3.07919 15.5651 2.47791 15.3981 2.50063C15.231 2.52337 15.0426 2.71326 14.6657 3.09306C13.2064 4.56348 10.792 4.56354 9.33276 3.09315C8.95585 2.71336 8.76739 2.52346 8.60035 2.50074C8.4333 2.47801 7.38483 3.0793 7.0126 3.29277C6.63327 3.51031 5.58126 4.1136 5.51516 4.27144C5.44907 4.42928 5.51829 4.69839 5.65672 5.23664C6.16008 7.19377 4.9394 9.25336 2.98902 9.78464C2.46711 9.92678 2.20615 9.99789 2.10308 10.1339C2 10.2697 2 11.465 2 11.9022C2 12.3395 2 13.5347 2.10308 13.6707C2.20617 13.8066 2.467 13.8776 2.98866 14.0197C2.99478 14.0214 3.00089 14.0231 3.007 14.0247" stroke="#141B34" stroke-width="1.5" stroke-linecap="round"/>
<path d="M2.48891 18.1835C3.56891 17.104 7.24091 13.4695 7.60091 13.0496C7.98148 12.6058 7.67291 12.0061 7.85651 10.1468C7.94535 9.24725 8.13895 8.57327 8.69291 8.07173C9.35291 7.44799 9.89291 7.44799 11.7529 7.406C13.3729 7.44799 13.5649 7.26806 13.7329 7.68789C13.8529 7.98777 13.4929 8.16769 13.0609 8.6475C12.1009 9.6071 11.5369 10.0869 11.4829 10.3868C11.0929 11.7062 12.6289 12.4859 13.4689 11.6462C13.7866 11.3287 15.2569 9.847 15.4009 9.72705C15.5089 9.63109 15.7674 9.63573 15.8929 9.78702C16.0009 9.89308 16.0129 9.90697 16.0009 10.3867C15.9898 10.8309 15.9948 11.4685 15.9961 12.126C15.9979 12.978 15.9529 13.9253 15.5929 14.4051C14.8729 15.4846 13.6729 15.5446 12.5929 15.5926C11.5729 15.6526 10.7329 15.5446 10.4689 15.7365C10.2529 15.8445 9.11291 17.044 7.73291 18.4234L5.27291 20.8824C3.23291 22.5018 0.98891 19.9828 2.48891 18.1835Z" stroke="#141B34" stroke-width="1.5" stroke-linecap="round"/>
</svg>
