<svg width="20" height="20" viewBox="0 0 20 20" fill="none" xmlns="http://www.w3.org/2000/svg">
<path d="M2.08398 9.9987C2.08398 6.26675 2.08398 4.40077 3.24335 3.2414C4.40273 2.08203 6.2687 2.08203 10.0007 2.08203C13.7326 2.08203 15.5986 2.08203 16.758 3.2414C17.9173 4.40077 17.9173 6.26675 17.9173 9.9987C17.9173 13.7306 17.9173 15.5966 16.758 16.756C15.5986 17.9154 13.7326 17.9154 10.0007 17.9154C6.2687 17.9154 4.40273 17.9154 3.24335 16.756C2.08398 15.5966 2.08398 13.7306 2.08398 9.9987Z" stroke="black" stroke-width="1.5"/>
<path d="M12.5007 12.4987L14.1673 14.1654M13.334 9.58203C13.334 7.51094 11.6551 5.83203 9.58398 5.83203C7.51289 5.83203 5.83398 7.51094 5.83398 9.58203C5.83398 11.6531 7.51289 13.332 9.58398 13.332C11.6551 13.332 13.334 11.6531 13.334 9.58203Z" stroke="black" stroke-width="1.5" stroke-linecap="round" stroke-linejoin="round"/>
</svg>
