<svg width="24" height="24" viewBox="0 0 24 24" fill="none" xmlns="http://www.w3.org/2000/svg">
<path d="M9.49805 15L16.998 7.5" stroke="#141B34" stroke-width="1.5" stroke-linecap="round" stroke-linejoin="round"/>
<path d="M8.00628 7.67888L15.3269 4.21881C18.3687 2.78111 19.8896 2.06226 20.8597 2.78341C21.8298 3.50455 21.5526 5.14799 20.9983 8.43486L20.0434 14.0968C19.681 16.246 19.4997 17.3205 18.6988 17.7891C17.8978 18.2577 16.8573 17.8978 14.7764 17.178L8.41071 14.9762C4.51911 13.6301 2.57331 12.9571 2.50013 11.6365C2.42694 10.3159 4.28672 9.43692 8.00628 7.67888Z" stroke="#141B34" stroke-width="1.5" stroke-linecap="round" stroke-linejoin="round"/>
<path d="M9.49805 15.5V17.7274C9.49805 20.101 9.49805 21.2878 10.2082 21.4771C10.9184 21.6663 11.6663 20.6789 13.1621 18.7039L13.998 17.5" stroke="#141B34" stroke-width="1.5" stroke-linecap="round" stroke-linejoin="round"/>
</svg>
