<svg width="25" height="24" viewBox="0 0 25 24" fill="none" xmlns="http://www.w3.org/2000/svg">
<path d="M9.26938 2.5C8.9973 2.59728 8.73058 2.70543 8.46979 2.8239M5.92501 4.46566C5.69851 4.66428 5.48106 4.87255 5.27334 5.08979M3.53178 7.56476C3.34599 7.93804 3.18313 8.32421 3.04498 8.72152M2.51608 11.3914C2.49387 11.7808 2.49471 12.1778 2.51835 12.5673M3.06845 15.2658C3.20147 15.6396 3.35641 16.0035 3.53178 16.3558M5.19086 18.7435C5.43508 19.005 5.69323 19.2539 5.96415 19.4891M8.27635 21.0064C8.67073 21.1954 9.07927 21.3606 9.5 21.5" stroke="#141B34" stroke-width="1.5" stroke-linecap="round" stroke-linejoin="round"/>
<path d="M12.5 22C18.0228 22 22.5 17.5228 22.5 12C22.5 6.47715 18.0228 2 12.5 2" stroke="#141B34" stroke-width="1.5" stroke-linecap="round"/>
<path d="M12.5 13.5C13.3284 13.5 14 12.8284 14 12C14 11.1716 13.3284 10.5 12.5 10.5M12.5 13.5C11.6716 13.5 11 12.8284 11 12C11 11.1716 11.6716 10.5 12.5 10.5M12.5 13.5V16M12.5 10.5V6" stroke="#141B34" stroke-width="1.5" stroke-linecap="round"/>
</svg>
