<svg width="21" height="20" viewBox="0 0 21 20" fill="none" xmlns="http://www.w3.org/2000/svg">
<path d="M11.0827 18.3346H5.74174C4.45392 18.3346 3.42961 17.708 2.5099 16.8318C0.627155 15.038 3.71835 13.6046 4.89732 12.9026C6.52483 11.9335 8.40993 11.535 10.2493 11.7068" stroke="white" stroke-width="1.5" stroke-linecap="round" stroke-linejoin="round"/>
<path d="M13.166 5.41797C13.166 7.48904 11.4871 9.16797 9.41602 9.16797C7.34495 9.16797 5.66602 7.48904 5.66602 5.41797C5.66602 3.3469 7.34495 1.66797 9.41602 1.66797C11.4871 1.66797 13.166 3.3469 13.166 5.41797Z" stroke="white" stroke-width="1.5"/>
<path d="M17.2493 17.0013L18.5827 18.3346M17.916 14.668C17.916 13.0111 16.5728 11.668 14.916 11.668C13.2592 11.668 11.916 13.0111 11.916 14.668C11.916 16.3248 13.2592 17.668 14.916 17.668C16.5728 17.668 17.916 16.3248 17.916 14.668Z" stroke="white" stroke-width="1.5" stroke-linecap="round" stroke-linejoin="round"/>
</svg>
