<svg width="24" height="24" viewBox="0 0 24 24" fill="none" xmlns="http://www.w3.org/2000/svg">
<path d="M14 8.5C14 9.60453 13.1046 10.5 12 10.5C10.8954 10.5 10 9.60453 10 8.5C10 7.39543 10.8954 6.5 12 6.5C13.1046 6.5 14 7.39543 14 8.5Z" stroke="#141B34" stroke-width="1.5" stroke-linecap="round" stroke-linejoin="round"/>
<path d="M9.96949 14.2952C11.2098 13.5683 12.7906 13.5683 14.0309 14.2952L14.7894 13.0012C13.0807 11.9996 10.9197 11.9996 9.21098 13.0012L9.96949 14.2952ZM10.0406 17.25H13.9598V15.75H10.0406V17.25ZM8.82999 15.1639C8.69321 15.0357 8.75985 15.0307 8.74927 15.126C8.74403 15.1732 8.72925 15.1323 8.86163 15.0048C9.14175 14.7349 9.57366 14.5272 9.96949 14.2952L9.21098 13.0012C8.97802 13.1377 8.27122 13.4906 7.82085 13.9246C7.58799 14.1489 7.31002 14.4958 7.25843 14.9605C7.20149 15.4733 7.4386 15.9155 7.80389 16.2581L8.82999 15.1639ZM14.0309 14.2952C14.4267 14.5272 14.8587 14.7349 15.1388 15.0048C15.2711 15.1323 15.2564 15.1732 15.2511 15.126C15.2405 15.0307 15.3072 15.0357 15.1704 15.1639L16.1965 16.2581C16.5618 15.9155 16.7989 15.4733 16.742 14.9605C16.6904 14.4958 16.4124 14.1489 16.1795 13.9246C15.7292 13.4906 15.0224 13.1377 14.7894 13.0012L14.0309 14.2952ZM15.1704 15.1639C14.749 15.5592 14.378 15.75 13.9598 15.75V17.25C14.9153 17.25 15.6369 16.7828 16.1965 16.2581L15.1704 15.1639ZM7.80389 16.2581C8.36346 16.7828 9.08508 17.25 10.0406 17.25V15.75C9.62242 15.75 9.25143 15.5592 8.82999 15.1639L7.80389 16.2581Z" fill="#141B34"/>
<path d="M21 11.1833V8.28029C21 6.64029 21 5.82028 20.5959 5.28529C20.1918 4.75029 19.2781 4.49056 17.4507 3.9711C16.2022 3.6162 15.1016 3.18863 14.2223 2.79829C13.0234 2.2661 12.424 2 12 2C11.576 2 10.9766 2.2661 9.77771 2.79829C8.89839 3.18863 7.79784 3.61619 6.54933 3.9711C4.72193 4.49056 3.80822 4.75029 3.40411 5.28529C3 5.82028 3 6.64029 3 8.28029V11.1833C3 16.8085 8.06277 20.1835 10.594 21.5194C11.2011 21.8398 11.5046 22 12 22C12.4954 22 12.7989 21.8398 13.406 21.5194C15.9372 20.1835 21 16.8085 21 11.1833Z" stroke="#141B34" stroke-width="1.5" stroke-linecap="round"/>
</svg>
