<svg width="21" height="20" viewBox="0 0 21 20" fill="none" xmlns="http://www.w3.org/2000/svg">
<path d="M10.7493 6.2487C10.7493 7.85953 9.44352 9.16536 7.83268 9.16536C6.22185 9.16536 4.91602 7.85953 4.91602 6.2487C4.91602 4.63786 6.22185 3.33203 7.83268 3.33203C9.44352 3.33203 10.7493 4.63786 10.7493 6.2487Z" stroke="black" stroke-width="1.5"/>
<path d="M12 9.16536C13.6108 9.16536 14.9167 7.85953 14.9167 6.2487C14.9167 4.63786 13.6108 3.33203 12 3.33203" stroke="black" stroke-width="1.5" stroke-linecap="round"/>
<path d="M11.7018 16.668H3.96363C3.10891 16.668 2.41602 16.0284 2.41602 15.2394C2.41602 13.267 4.14825 11.668 6.28507 11.668H9.38027C10.2513 11.668 11.0551 11.9336 11.7018 12.382" stroke="black" stroke-width="1.5" stroke-linecap="round" stroke-linejoin="round"/>
<path d="M16.584 11.668V16.668M19.084 14.168H14.084" stroke="black" stroke-width="1.5" stroke-linecap="round"/>
</svg>
