<svg width="20" height="20" viewBox="0 0 20 20" fill="none" xmlns="http://www.w3.org/2000/svg">
<path d="M4.43411 8.0678C6.44551 4.50869 7.4512 2.72912 8.83127 2.27104C9.59044 2.01903 10.4083 2.01903 11.1674 2.27104C12.5475 2.72912 13.5532 4.50869 15.5646 8.0678C17.576 11.6269 18.5817 13.4065 18.28 14.8565C18.114 15.6542 17.7051 16.3777 17.1119 16.9235C16.0335 17.9154 14.0222 17.9154 9.99935 17.9154C5.97656 17.9154 3.96516 17.9154 2.88682 16.9235C2.29359 16.3777 1.88468 15.6542 1.7187 14.8565C1.41701 13.4065 2.42271 11.6269 4.43411 8.0678Z" stroke="#FFCD00" stroke-width="1.5"/>
<path d="M9.99414 13.332H10.0016" stroke="#FFCD00" stroke-width="2" stroke-linecap="round" stroke-linejoin="round"/>
<path d="M10 10.8334V7.5" stroke="#FFCD00" stroke-width="1.5" stroke-linecap="round" stroke-linejoin="round"/>
</svg>
