<svg width="24" height="22" viewBox="0 0 24 22" fill="none" xmlns="http://www.w3.org/2000/svg">
<path d="M20.3816 12.3402V9.92464C20.3816 9.0818 20.3816 8.66041 20.2247 8.2815C20.0676 7.9026 19.7697 7.60463 19.1737 7.00869L14.2907 2.12565C13.7764 1.61134 13.5193 1.35418 13.2006 1.2018C13.1343 1.1701 13.0665 1.14198 12.9972 1.11754C12.6641 1 12.3005 1 11.5731 1C8.22777 1 6.55508 1 5.42211 1.91347C5.19322 2.09802 4.98474 2.30651 4.80019 2.53539C3.88672 3.66836 3.88672 5.34105 3.88672 8.68643V12.3402M13.1651 1.51546V2.03093C13.1651 4.94683 13.1651 6.40478 14.0709 7.31064C14.9768 8.21649 16.4348 8.21649 19.3506 8.21649H19.8661" stroke="black" stroke-width="1.2" stroke-linecap="round" stroke-linejoin="round"/>
<path d="M1 14.8125L2.85567 17.9053M2.85567 17.9053L4.71134 20.9981M2.85567 17.9053L4.71134 14.8125M2.85567 17.9053L1 20.9981" stroke="black" stroke-width="1.2" stroke-linecap="round" stroke-linejoin="round"/>
<path d="M10.8969 20.9981H9.65977C8.49342 20.9981 7.91025 20.9981 7.5479 20.6961C7.18555 20.3941 7.18555 19.9082 7.18555 18.9362V14.8125" stroke="black" stroke-width="1.2" stroke-linecap="round" stroke-linejoin="round"/>
<path d="M16.6692 14.8125H15.2268C14.6503 14.8125 14.3621 14.8125 14.1349 14.891C13.3606 15.1582 13.3711 15.7864 13.3711 16.3589C13.3711 16.9314 13.3606 17.5596 14.1349 17.8268C14.3621 17.9053 14.6503 17.9053 15.2268 17.9053C15.8032 17.9053 16.0914 17.9053 16.3188 17.9837C17.0929 18.251 17.0824 18.8792 17.0824 19.4517C17.0824 20.0241 17.0929 20.6524 16.3188 20.9196C16.0914 20.9981 15.8032 20.9981 15.2268 20.9981H13.6557" stroke="black" stroke-width="1.2" stroke-linecap="round" stroke-linejoin="round"/>
<path d="M19.5566 14.8125L21.4123 17.9053M21.4123 17.9053L23.268 20.9981M21.4123 17.9053L23.268 14.8125M21.4123 17.9053L19.5566 20.9981" stroke="black" stroke-width="1.2" stroke-linecap="round" stroke-linejoin="round"/>
</svg>
